<svg width="54" height="45" viewBox="0 0 54 45" fill="none" xmlns="http://www.w3.org/2000/svg">
<path opacity="0.8" fill-rule="evenodd" clip-rule="evenodd" d="M50.1926 0H47.0553C45.3226 0 43.918 1.88878 43.918 4.2187V40.7808C43.918 43.1107 45.3226 44.9995 47.0553 44.9995H50.1926C51.9253 44.9995 53.3299 43.1107 53.3299 40.7808V4.2187C53.3299 1.88878 51.9253 0 50.1926 0ZM32.4225 9.84265H35.5598C37.2924 9.84265 38.6971 11.7314 38.6971 14.0614V40.7798C38.6971 43.1097 37.2924 44.9985 35.5598 44.9985H32.4225C30.6898 44.9985 29.2852 43.1097 29.2852 40.7798V14.0614C29.2852 11.7314 30.6898 9.84265 32.4225 9.84265ZM20.9113 19.6875H17.774C16.0413 19.6875 14.6367 21.5763 14.6367 23.9062V40.781C14.6367 43.1109 16.0413 44.9997 17.774 44.9997H20.9113C22.644 44.9997 24.0486 43.1109 24.0486 40.781V23.9062C24.0486 21.5763 22.644 19.6875 20.9113 19.6875ZM6.27461 28.125H3.1373C1.40462 28.125 0 30.0138 0 32.3437V40.7811C0 43.111 1.40462 44.9998 3.1373 44.9998H6.27461C8.00729 44.9998 9.41191 43.111 9.41191 40.7811V32.3437C9.41191 30.0138 8.00729 28.125 6.27461 28.125Z" fill="white"/>
</svg>
