<svg width="85" height="75" viewBox="0 0 85 75" fill="none" xmlns="http://www.w3.org/2000/svg">
<path d="M38.6364 15V0H46.3636V15H38.6364ZM64.3295 25.3125L58.9204 20.0625L69.8352 9.375L75.2443 14.7188L64.3295 25.3125ZM69.5454 45V37.5H85V45H69.5454ZM69.8352 73.0312L58.9204 62.4375L64.3295 57.1875L75.3409 67.6875L69.8352 73.0312ZM20.6705 25.3125L9.75568 14.7188L15.2614 9.375L26.0795 20.0625L20.6705 25.3125ZM19.3182 67.5H36.7045C38.3144 67.5 39.6828 66.9531 40.8097 65.8594C41.9366 64.7656 42.5 63.4375 42.5 61.875C42.5 60.3125 41.9526 58.9844 40.858 57.8906C39.7633 56.7969 38.411 56.25 36.8011 56.25H31.875L29.9432 51.75C29.0417 49.6875 27.625 48.0469 25.6932 46.8281C23.7614 45.6094 21.6364 45 19.3182 45C16.0985 45 13.3617 46.0938 11.108 48.2812C8.85417 50.4688 7.72727 53.125 7.72727 56.25C7.72727 59.375 8.85417 62.0312 11.108 64.2188C13.3617 66.4062 16.0985 67.5 19.3182 67.5ZM19.3182 75C13.9735 75 9.41761 73.1719 5.65057 69.5156C1.88352 65.8594 0 61.4375 0 56.25C0 51.0625 1.88352 46.6406 5.65057 42.9844C9.41761 39.3281 13.9735 37.5 19.3182 37.5C23.1818 37.5 26.7074 38.5156 29.8949 40.5469C33.0824 42.5781 35.4489 45.3125 36.9943 48.75C40.7292 48.75 43.8684 50.0938 46.4119 52.7812C48.9555 55.4688 50.2273 58.6875 50.2273 62.4375C50.0985 66 48.7301 68.9844 46.1222 71.3906C43.5142 73.7969 40.375 75 36.7045 75H19.3182ZM50.2273 62.4375C49.9053 61.1875 49.5833 59.9688 49.2614 58.7812C48.9394 57.5938 48.6174 56.375 48.2955 55.125C51.1932 53.9375 53.5275 52.0938 55.2983 49.5938C57.0691 47.0938 57.9545 44.3125 57.9545 41.25C57.9545 37.125 56.4413 33.5938 53.4148 30.6562C50.3883 27.7188 46.75 26.25 42.5 26.25C38.6364 26.25 35.2557 27.4688 32.358 29.9062C29.4602 32.3438 27.7538 35.4375 27.2386 39.1875C25.9508 38.875 24.6307 38.5938 23.2784 38.3438C21.9261 38.0938 20.6061 37.8125 19.3182 37.5C20.2197 32 22.8759 27.5 27.2869 24C31.6979 20.5 36.7689 18.75 42.5 18.75C48.9394 18.75 54.4129 20.9375 58.9204 25.3125C63.428 29.6875 65.6818 35 65.6818 41.25C65.6818 46.0625 64.2652 50.3906 61.4318 54.2344C58.5985 58.0781 54.8636 60.8125 50.2273 62.4375Z" fill="#F1A33B"/>
</svg>
