<svg width="140" height="140" viewBox="0 0 140 140" fill="none" xmlns="http://www.w3.org/2000/svg">
<g filter="url(#filter0_ii_2363_3620)">
<path d="M0 37.8378V15.1351C0 10.973 1.30556 7.40991 3.91667 4.44595C6.52778 1.48198 9.66667 0 13.3333 0H120C123.667 0 126.806 1.48198 129.417 4.44595C132.028 7.40991 133.333 10.973 133.333 15.1351V60.5405H120V15.1351H13.3333V37.8378H0ZM13.3333 121.081C9.66667 121.081 6.52778 119.599 3.91667 116.635C1.30556 113.671 0 110.108 0 105.946V83.2432H13.3333V105.946H60V121.081H13.3333ZM106.667 140L96.5 130.162C86.7222 120.703 80.4167 113.86 77.5833 109.635C74.75 105.41 73.3333 101.027 73.3333 96.4865C73.3333 90.8108 75.1111 85.9234 78.6667 81.8243C82.2222 77.7252 86.5556 75.6757 91.6667 75.6757C94.5556 75.6757 97.3056 76.4324 99.9167 77.946C102.528 79.4595 104.778 81.6667 106.667 84.5676C108.444 81.6667 110.639 79.4595 113.25 77.946C115.861 76.4324 118.667 75.6757 121.667 75.6757C126.667 75.6757 130.972 77.7252 134.583 81.8243C138.194 85.9234 140 90.8108 140 96.4865C140 101.027 138.556 105.41 135.667 109.635C132.778 113.86 126.444 120.703 116.667 130.162L106.667 140ZM106.667 119.946L111.333 115.595C117.556 109.541 121.667 105.284 123.667 102.824C125.667 100.365 126.667 98.2523 126.667 96.4865C126.667 94.973 126.167 93.6487 125.167 92.5135C124.167 91.3784 123 90.8108 121.667 90.8108C120.778 90.8108 119.972 91.0315 119.25 91.473C118.528 91.9144 117.667 92.6396 116.667 93.6487L106.667 104.125L96.5 93.6487C95.5 92.6396 94.6389 91.9144 93.9167 91.473C93.1945 91.0315 92.4445 90.8108 91.6667 90.8108C90.2222 90.8108 89.0278 91.3784 88.0833 92.5135C87.1389 93.6487 86.6667 94.973 86.6667 96.4865C86.6667 98.2523 87.6389 100.365 89.5833 102.824C91.5278 105.284 95.6111 109.541 101.833 115.595L106.667 119.946ZM33.3333 98.3784C32 98.3784 30.8056 98.0315 29.75 97.3378C28.6944 96.6441 27.8889 95.6036 27.3333 94.2162L15.8333 68.1081H0V52.973H20C21.2222 52.973 22.3611 53.3514 23.4167 54.1081C24.4722 54.8649 25.2778 55.8739 25.8333 57.1351L33.3333 73.973L54 26.8649C54.5556 25.6036 55.3889 24.6577 56.5 24.027C57.6111 23.3964 58.7778 23.0811 60 23.0811C61.2222 23.0811 62.3889 23.3964 63.5 24.027C64.6111 24.6577 65.4444 25.6036 66 26.8649L77.3333 52.973H100V68.1081H73.3333C72 68.1081 70.8056 67.7613 69.75 67.0676C68.6944 66.3739 67.8889 65.3333 67.3333 63.9459L60 47.2973L39.1667 94.2162C38.6111 95.6036 37.8056 96.6441 36.75 97.3378C35.6944 98.0315 34.5556 98.3784 33.3333 98.3784Z" fill="white"/>
</g>
<defs>
<filter id="filter0_ii_2363_3620" x="0" y="0" width="140" height="144" filterUnits="userSpaceOnUse" color-interpolation-filters="sRGB">
<feFlood flood-opacity="0" result="BackgroundImageFix"/>
<feBlend mode="normal" in="SourceGraphic" in2="BackgroundImageFix" result="shape"/>
<feColorMatrix in="SourceAlpha" type="matrix" values="0 0 0 0 0 0 0 0 0 0 0 0 0 0 0 0 0 0 127 0" result="hardAlpha"/>
<feOffset dy="4"/>
<feGaussianBlur stdDeviation="2"/>
<feComposite in2="hardAlpha" operator="arithmetic" k2="-1" k3="1"/>
<feColorMatrix type="matrix" values="0 0 0 0 0 0 0 0 0 0 0 0 0 0 0 0 0 0 0.25 0"/>
<feBlend mode="normal" in2="shape" result="effect1_innerShadow_2363_3620"/>
<feColorMatrix in="SourceAlpha" type="matrix" values="0 0 0 0 0 0 0 0 0 0 0 0 0 0 0 0 0 0 127 0" result="hardAlpha"/>
<feOffset dy="4"/>
<feGaussianBlur stdDeviation="2"/>
<feComposite in2="hardAlpha" operator="arithmetic" k2="-1" k3="1"/>
<feColorMatrix type="matrix" values="0 0 0 0 0 0 0 0 0 0 0 0 0 0 0 0 0 0 0.25 0"/>
<feBlend mode="normal" in2="effect1_innerShadow_2363_3620" result="effect2_innerShadow_2363_3620"/>
</filter>
</defs>
</svg>
