<svg width="140" height="140" viewBox="0 0 140 140" fill="none" xmlns="http://www.w3.org/2000/svg">
<g filter="url(#filter0_ii_2363_3576)">
<path d="M38.5 0C44.5666 0 50.3416 1.39873 55.825 4.19619C61.3083 6.99364 66.0333 10.9355 70 16.0218C73.9666 10.9355 78.6916 6.99364 84.175 4.19619C89.6583 1.39873 95.4333 0 101.5 0C112.467 0 121.625 4.00545 128.975 12.0163C136.325 20.0272 140 30.0091 140 41.9619C140 42.5976 139.971 43.2334 139.912 43.8692C139.854 44.505 139.825 45.1408 139.825 45.7766H125.825C125.942 45.1408 126 44.505 126 43.8692V41.9619C126 34.3324 123.667 27.9746 119 22.8883C114.333 17.802 108.5 15.2589 101.5 15.2589C96.0166 15.2589 90.9416 16.9437 86.275 20.3134C81.6083 23.683 78.4 27.9746 76.65 33.188H63.35C61.6 27.9746 58.3916 23.683 53.725 20.3134C49.0583 16.9437 43.9833 15.2589 38.5 15.2589C31.5 15.2589 25.6667 17.802 21 22.8883C16.3333 27.9746 14 34.3324 14 41.9619V43.8692C14 44.505 14.0583 45.1408 14.175 45.7766H0.175C0.175 45.1408 0.145833 44.505 0.0874999 43.8692C0.0291666 43.2334 0 42.5976 0 41.9619C0 30.0091 3.67499 20.0272 11.025 12.0163C18.375 4.00545 27.5333 0 38.5 0ZM23.1 91.5531H42.7C46.4333 95.495 50.5166 99.7548 54.95 104.332C59.3833 108.91 64.4 113.933 70 119.401C75.6 113.933 80.6166 108.91 85.05 104.332C89.4833 99.7548 93.5666 95.495 97.3 91.5531H117.075C112.642 96.8937 107.392 102.679 101.325 108.91C95.2583 115.141 88.2 122.198 80.15 130.082L70 140L59.85 130.082C51.8 122.198 44.7708 115.141 38.7625 108.91C32.7542 102.679 27.5333 96.8937 23.1 91.5531ZM63.35 99.1826C64.8666 99.1826 66.1791 98.7057 67.2875 97.752C68.3958 96.7984 69.1833 95.5586 69.65 94.0327L79.1 62.9428L85.225 72.861C85.8083 73.8783 86.625 74.7048 87.675 75.3406C88.725 75.9764 89.8333 76.2943 91 76.2943H139.825V61.0354H95.025L82.95 41.5804C82.25 40.436 81.3458 39.5777 80.2375 39.0054C79.1291 38.4332 77.9333 38.1471 76.65 38.1471C75.1333 38.1471 73.8208 38.624 72.7125 39.5777C71.6041 40.5313 70.8166 41.7711 70.35 43.297L60.9 74.1962L54.95 64.4687C54.3666 63.4514 53.55 62.6249 52.5 61.9891C51.45 61.3533 50.3416 61.0354 49.175 61.0354H0L0.00478369 76.2943H44.975L57.05 95.7493C57.75 96.8937 58.6541 97.752 59.7625 98.3242C60.8708 98.8965 62.0666 99.1826 63.35 99.1826Z" fill="#F1A33B"/>
</g>
<defs>
<filter id="filter0_ii_2363_3576" x="0" y="0" width="140" height="144" filterUnits="userSpaceOnUse" color-interpolation-filters="sRGB">
<feFlood flood-opacity="0" result="BackgroundImageFix"/>
<feBlend mode="normal" in="SourceGraphic" in2="BackgroundImageFix" result="shape"/>
<feColorMatrix in="SourceAlpha" type="matrix" values="0 0 0 0 0 0 0 0 0 0 0 0 0 0 0 0 0 0 127 0" result="hardAlpha"/>
<feOffset dy="4"/>
<feGaussianBlur stdDeviation="2"/>
<feComposite in2="hardAlpha" operator="arithmetic" k2="-1" k3="1"/>
<feColorMatrix type="matrix" values="0 0 0 0 0 0 0 0 0 0 0 0 0 0 0 0 0 0 0.25 0"/>
<feBlend mode="normal" in2="shape" result="effect1_innerShadow_2363_3576"/>
<feColorMatrix in="SourceAlpha" type="matrix" values="0 0 0 0 0 0 0 0 0 0 0 0 0 0 0 0 0 0 127 0" result="hardAlpha"/>
<feOffset dy="4"/>
<feGaussianBlur stdDeviation="2"/>
<feComposite in2="hardAlpha" operator="arithmetic" k2="-1" k3="1"/>
<feColorMatrix type="matrix" values="0 0 0 0 0 0 0 0 0 0 0 0 0 0 0 0 0 0 0.25 0"/>
<feBlend mode="normal" in2="effect1_innerShadow_2363_3576" result="effect2_innerShadow_2363_3576"/>
</filter>
</defs>
</svg>
