<svg width="130" height="140" viewBox="0 0 130 140" fill="none" xmlns="http://www.w3.org/2000/svg">
<g filter="url(#filter0_ii_2363_3592)">
<path d="M72.2222 62.2222V46.6667H108.333V62.2222H72.2222ZM72.2222 31.1111V15.5556H130V31.1111H72.2222ZM36.1111 140C26.1204 140 17.6042 136.208 10.5625 128.625C3.52083 121.042 0 111.87 0 101.111C0 94.8889 1.26389 89.088 3.79167 83.7083C6.31944 78.3287 9.87037 73.7593 14.4444 70V23.3333C14.4444 16.8519 16.5509 11.3426 20.7639 6.80556C24.9769 2.26852 30.0926 0 36.1111 0C42.1296 0 47.2454 2.26852 51.4583 6.80556C55.6713 11.3426 57.7778 16.8519 57.7778 23.3333V70C62.3519 73.7593 65.9028 78.3287 68.4305 83.7083C70.9583 89.088 72.2222 94.8889 72.2222 101.111C72.2222 111.87 68.7014 121.042 61.6597 128.625C54.6181 136.208 46.1019 140 36.1111 140ZM14.4444 101.111H57.7778C57.7778 97.3519 57.0255 93.8519 55.5208 90.6111C54.0162 87.3704 51.8796 84.6481 49.1111 82.4444L43.3333 77.7778V23.3333C43.3333 21.1296 42.6412 19.2824 41.2569 17.7917C39.8727 16.3009 38.1574 15.5556 36.1111 15.5556C34.0648 15.5556 32.3495 16.3009 30.9653 17.7917C29.581 19.2824 28.8889 21.1296 28.8889 23.3333V77.7778L23.1111 82.4444C20.3426 84.6481 18.206 87.3704 16.7014 90.6111C15.1968 93.8519 14.4444 97.3519 14.4444 101.111Z" fill="#E32944"/>
</g>
<defs>
<filter id="filter0_ii_2363_3592" x="0" y="0" width="130" height="144" filterUnits="userSpaceOnUse" color-interpolation-filters="sRGB">
<feFlood flood-opacity="0" result="BackgroundImageFix"/>
<feBlend mode="normal" in="SourceGraphic" in2="BackgroundImageFix" result="shape"/>
<feColorMatrix in="SourceAlpha" type="matrix" values="0 0 0 0 0 0 0 0 0 0 0 0 0 0 0 0 0 0 127 0" result="hardAlpha"/>
<feOffset dy="4"/>
<feGaussianBlur stdDeviation="2"/>
<feComposite in2="hardAlpha" operator="arithmetic" k2="-1" k3="1"/>
<feColorMatrix type="matrix" values="0 0 0 0 0 0 0 0 0 0 0 0 0 0 0 0 0 0 0.25 0"/>
<feBlend mode="normal" in2="shape" result="effect1_innerShadow_2363_3592"/>
<feColorMatrix in="SourceAlpha" type="matrix" values="0 0 0 0 0 0 0 0 0 0 0 0 0 0 0 0 0 0 127 0" result="hardAlpha"/>
<feOffset dy="4"/>
<feGaussianBlur stdDeviation="2"/>
<feComposite in2="hardAlpha" operator="arithmetic" k2="-1" k3="1"/>
<feColorMatrix type="matrix" values="0 0 0 0 0 0 0 0 0 0 0 0 0 0 0 0 0 0 0.25 0"/>
<feBlend mode="normal" in2="effect1_innerShadow_2363_3592" result="effect2_innerShadow_2363_3592"/>
</filter>
</defs>
</svg>
