<svg width="125" height="140" viewBox="0 0 125 130" fill="none" xmlns="http://www.w3.org/2000/svg">
<g filter="url(#filter0_ii_2363_3606)">
<path d="M25 140V75.95C17.9167 74.3167 11.9792 71.05 7.1875 66.15C2.39583 61.25 0 55.5333 0 49V0H16.6667V49H25V0H41.6667V49H50V0H66.6667V49C66.6667 55.5333 64.2708 61.25 59.4792 66.15C54.6875 71.05 48.75 74.3167 41.6667 75.95V140H25ZM108.333 140V84H83.3333V35C83.3333 25.3167 87.3958 17.0625 95.5208 10.2375C103.646 3.4125 113.472 0 125 0V140H108.333Z" fill="white"/>
</g>
<defs>
<filter id="filter0_ii_2363_3606" x="0" y="0" width="125" height="144" filterUnits="userSpaceOnUse" color-interpolation-filters="sRGB">
<feFlood flood-opacity="0" result="BackgroundImageFix"/>
<feBlend mode="normal" in="SourceGraphic" in2="BackgroundImageFix" result="shape"/>
<feColorMatrix in="SourceAlpha" type="matrix" values="0 0 0 0 0 0 0 0 0 0 0 0 0 0 0 0 0 0 127 0" result="hardAlpha"/>
<feOffset dy="4"/>
<feGaussianBlur stdDeviation="2"/>
<feComposite in2="hardAlpha" operator="arithmetic" k2="-1" k3="1"/>
<feColorMatrix type="matrix" values="0 0 0 0 0 0 0 0 0 0 0 0 0 0 0 0 0 0 0.25 0"/>
<feBlend mode="normal" in2="shape" result="effect1_innerShadow_2363_3606"/>
<feColorMatrix in="SourceAlpha" type="matrix" values="0 0 0 0 0 0 0 0 0 0 0 0 0 0 0 0 0 0 127 0" result="hardAlpha"/>
<feOffset dy="4"/>
<feGaussianBlur stdDeviation="2"/>
<feComposite in2="hardAlpha" operator="arithmetic" k2="-1" k3="1"/>
<feColorMatrix type="matrix" values="0 0 0 0 0 0 0 0 0 0 0 0 0 0 0 0 0 0 0.25 0"/>
<feBlend mode="normal" in2="effect1_innerShadow_2363_3606" result="effect2_innerShadow_2363_3606"/>
</filter>
</defs>
</svg>
