<svg width="150" height="140" viewBox="0 0 150 140" fill="white" fill-opacity="1" xmlns="http://www.w3.org/2000/svg">
<g filter="url(#filter0_ii_1_3180)">
<path d="M39.2857 140.256C32.381 140.256 26.4881 137.864 21.6071 133.081C16.7262 128.298 14.2857 122.523 14.2857 115.756V60.2809C11.0714 57.2475 7.8869 54.185 4.73214 51.0934C1.57738 48.0017 0 44.2392 0 39.8059C0 36.6559 1.16071 33.9434 3.48214 31.6684C5.80357 29.3934 8.57143 28.2559 11.7857 28.2559C13.6905 28.2559 15.4464 28.6642 17.0536 29.4809C18.6607 30.2975 20.119 31.3475 21.4286 32.6309C22.7381 31.3475 24.1964 30.2975 25.8036 29.4809C27.4107 28.6642 29.1667 28.2559 31.0714 28.2559C34.2857 28.2559 37.0536 29.3934 39.375 31.6684C41.6964 33.9434 42.8571 36.6559 42.8571 39.8059C42.8571 44.2392 41.2798 48.0017 38.125 51.0934C34.9702 54.185 31.7857 57.2475 28.5714 60.2809V115.756C28.5714 118.673 29.6131 121.152 31.6964 123.193C33.7798 125.235 36.3095 126.256 39.2857 126.256C42.2619 126.256 44.7917 125.235 46.875 123.193C48.9583 121.152 50 118.673 50 115.756V35.2559C50 25.5725 53.4821 17.3184 60.4464 10.4934C67.4107 3.66836 75.8333 0.255859 85.7143 0.255859C95.5952 0.255859 104.018 3.66836 110.982 10.4934C117.946 17.3184 121.429 25.5725 121.429 35.2559V35.9559C129.643 37.5892 136.458 41.585 141.875 47.9434C147.292 54.3017 150 61.7392 150 70.2559V105.256C150 114.939 146.518 123.193 139.554 130.018C132.589 136.843 124.167 140.256 114.286 140.256C104.405 140.256 95.9821 136.843 89.0179 130.018C82.0536 123.193 78.5714 114.939 78.5714 105.256V70.2559C78.5714 61.7392 81.2798 54.3017 86.6964 47.9434C92.1131 41.585 98.9286 37.5892 107.143 35.9559V35.2559C107.143 29.4225 105.06 24.4642 100.893 20.3809C96.7262 16.2975 91.6667 14.2559 85.7143 14.2559C79.7619 14.2559 74.7024 16.2975 70.5357 20.3809C66.369 24.4642 64.2857 29.4225 64.2857 35.2559V115.756C64.2857 122.523 61.8452 128.298 56.9643 133.081C52.0833 137.864 46.1905 140.256 39.2857 140.256ZM114.286 126.256C120.238 126.256 125.298 124.214 129.464 120.131C133.631 116.048 135.714 111.089 135.714 105.256V70.2559C135.714 64.4225 133.631 59.4642 129.464 55.3809C125.298 51.2975 120.238 49.2559 114.286 49.2559C108.333 49.2559 103.274 51.2975 99.1071 55.3809C94.9405 59.4642 92.8571 64.4225 92.8571 70.2559V105.256C92.8571 111.089 94.9405 116.048 99.1071 120.131C103.274 124.214 108.333 126.256 114.286 126.256Z" fill="white" fill-opacity="1"/>
<path d="M114.286 112.256C115.617 112.256 116.757 111.742 117.706 110.714C118.654 109.686 119.128 108.45 119.128 107.006C119.128 106.656 119.098 106.306 119.038 105.956C118.977 105.606 118.886 105.256 118.765 104.906L121.792 100.509C122.195 101.078 122.548 101.679 122.851 102.314C123.154 102.948 123.406 103.637 123.608 104.381H128.571C127.966 100.531 126.322 97.3809 123.638 94.9309C120.954 92.4809 117.837 91.2559 114.286 91.2559C110.734 91.2559 107.607 92.4918 104.903 94.9637C102.199 97.4355 100.565 100.575 100 104.381H104.964C105.529 102.018 106.679 100.115 108.414 98.6715C110.149 97.2277 112.107 96.5059 114.286 96.5059C114.972 96.5059 115.617 96.5715 116.223 96.7027C116.828 96.834 117.413 97.0309 117.978 97.2934L114.891 101.821C114.81 101.821 114.709 101.811 114.588 101.789C114.467 101.767 114.366 101.756 114.286 101.756C112.954 101.756 111.814 102.27 110.866 103.298C109.917 104.326 109.443 105.562 109.443 107.006C109.443 108.45 109.917 109.686 110.866 110.714C111.814 111.742 112.954 112.256 114.286 112.256Z" fill="white" fill-opacity="1"/>
</g>
<defs>
<filter id="filter0_ii_1_3180" x="0" y="0" width="150" height="154" filterUnits="userSpaceOnUse" color-interpolation-filters="sRGB">
<feFlood flood-opacity="0" result="BackgroundImageFix"/>
<feBlend mode="normal" in="SourceGraphic" in2="BackgroundImageFix" result="shape"/>
<feColorMatrix in="SourceAlpha" type="matrix" values="0 0 0 0 0 0 0 0 0 0 0 0 0 0 0 0 0 0 127 0" result="hardAlpha"/>
<feOffset dy="4"/>
<feGaussianBlur stdDeviation="2"/>
<feComposite in2="hardAlpha" operator="arithmetic" k2="-1" k3="1"/>
<feColorMatrix type="matrix" values="0 0 0 0 0 0 0 0 0 0 0 0 0 0 0 0 0 0 0.25 0"/>
<feBlend mode="normal" in2="shape" result="effect1_innerShadow_1_3180"/>
<feColorMatrix in="SourceAlpha" type="matrix" values="0 0 0 0 0 0 0 0 0 0 0 0 0 0 0 0 0 0 127 0" result="hardAlpha"/>
<feOffset dy="4"/>
<feGaussianBlur stdDeviation="2"/>
<feComposite in2="hardAlpha" operator="arithmetic" k2="-1" k3="1"/>
<feColorMatrix type="matrix" values="0 0 0 0 0 0 0 0 0 0 0 0 0 0 0 0 0 0 0.25 0"/>
<feBlend mode="normal" in2="effect1_innerShadow_1_3180" result="effect2_innerShadow_1_3180"/>
</filter>
</defs>
</svg>
