<svg width="150" height="140" viewBox="0 0 150 140" fill="none" xmlns="http://www.w3.org/2000/svg">
<g filter="url(#filter0_ii_1_3180)">
<path d="M39.2857 150C32.381 150 26.4881 147.438 21.6071 142.313C16.7262 137.188 14.2857 131 14.2857 123.75V64.3125C11.0714 61.0625 7.8869 57.7813 4.73214 54.4688C1.57738 51.1563 0 47.125 0 42.375C0 39 1.16071 36.0938 3.48214 33.6563C5.80357 31.2188 8.57143 30 11.7857 30C13.6905 30 15.4464 30.4375 17.0536 31.3125C18.6607 32.1875 20.119 33.3125 21.4286 34.6875C22.7381 33.3125 24.1964 32.1875 25.8036 31.3125C27.4107 30.4375 29.1667 30 31.0714 30C34.2857 30 37.0536 31.2188 39.375 33.6563C41.6964 36.0938 42.8571 39 42.8571 42.375C42.8571 47.125 41.2798 51.1563 38.125 54.4688C34.9702 57.7813 31.7857 61.0625 28.5714 64.3125V123.75C28.5714 126.875 29.6131 129.531 31.6964 131.719C33.7798 133.906 36.3095 135 39.2857 135C42.2619 135 44.7917 133.906 46.875 131.719C48.9583 129.531 50 126.875 50 123.75V37.5C50 27.125 53.4821 18.2812 60.4464 10.9687C67.4107 3.65625 75.8333 0 85.7143 0C95.5952 0 104.018 3.65625 110.982 10.9687C117.946 18.2812 121.429 27.125 121.429 37.5V38.25C129.643 40 136.458 44.2813 141.875 51.0938C147.292 57.9062 150 65.875 150 75V112.5C150 122.875 146.518 131.719 139.554 139.031C132.589 146.344 124.167 150 114.286 150C104.405 150 95.9821 146.344 89.0179 139.031C82.0536 131.719 78.5714 122.875 78.5714 112.5V75C78.5714 65.875 81.2798 57.9062 86.6964 51.0938C92.1131 44.2813 98.9286 40 107.143 38.25V37.5C107.143 31.25 105.06 25.9375 100.893 21.5625C96.7262 17.1875 91.6667 15 85.7143 15C79.7619 15 74.7024 17.1875 70.5357 21.5625C66.369 25.9375 64.2857 31.25 64.2857 37.5V123.75C64.2857 131 61.8452 137.188 56.9643 142.313C52.0833 147.438 46.1905 150 39.2857 150ZM114.286 135C120.238 135 125.298 132.813 129.464 128.438C133.631 124.062 135.714 118.75 135.714 112.5V75C135.714 68.75 133.631 63.4375 129.464 59.0625C125.298 54.6875 120.238 52.5 114.286 52.5C108.333 52.5 103.274 54.6875 99.1071 59.0625C94.9405 63.4375 92.8571 68.75 92.8571 75V112.5C92.8571 118.75 94.9405 124.062 99.1071 128.438C103.274 132.813 108.333 135 114.286 135Z" fill="#67CE67"/>
<path d="M114.286 120C115.617 120 116.757 119.449 117.706 118.348C118.654 117.246 119.128 115.922 119.128 114.375C119.128 114 119.098 113.625 119.038 113.25C118.977 112.875 118.886 112.5 118.765 112.125L121.792 107.414C122.195 108.023 122.548 108.668 122.851 109.348C123.154 110.027 123.406 110.766 123.608 111.562H128.571C127.966 107.437 126.322 104.062 123.638 101.437C120.954 98.8125 117.837 97.5 114.286 97.5C110.734 97.5 107.607 98.8242 104.903 101.473C102.199 104.121 100.565 107.484 100 111.562H104.964C105.529 109.031 106.679 106.992 108.414 105.445C110.149 103.898 112.107 103.125 114.286 103.125C114.972 103.125 115.617 103.195 116.223 103.336C116.828 103.477 117.413 103.688 117.978 103.969L114.891 108.82C114.81 108.82 114.709 108.809 114.588 108.785C114.467 108.762 114.366 108.75 114.286 108.75C112.954 108.75 111.814 109.301 110.866 110.402C109.917 111.504 109.443 112.828 109.443 114.375C109.443 115.922 109.917 117.246 110.866 118.348C111.814 119.449 112.954 120 114.286 120Z" fill="#67CE67"/>
</g>
<defs>
<filter id="filter0_ii_1_3180" x="0" y="0" width="150" height="154" filterUnits="userSpaceOnUse" color-interpolation-filters="sRGB">
<feFlood flood-opacity="0" result="BackgroundImageFix"/>
<feBlend mode="normal" in="SourceGraphic" in2="BackgroundImageFix" result="shape"/>
<feColorMatrix in="SourceAlpha" type="matrix" values="0 0 0 0 0 0 0 0 0 0 0 0 0 0 0 0 0 0 127 0" result="hardAlpha"/>
<feOffset dy="4"/>
<feGaussianBlur stdDeviation="2"/>
<feComposite in2="hardAlpha" operator="arithmetic" k2="-1" k3="1"/>
<feColorMatrix type="matrix" values="0 0 0 0 0 0 0 0 0 0 0 0 0 0 0 0 0 0 0.25 0"/>
<feBlend mode="normal" in2="shape" result="effect1_innerShadow_1_3180"/>
<feColorMatrix in="SourceAlpha" type="matrix" values="0 0 0 0 0 0 0 0 0 0 0 0 0 0 0 0 0 0 127 0" result="hardAlpha"/>
<feOffset dy="4"/>
<feGaussianBlur stdDeviation="2"/>
<feComposite in2="hardAlpha" operator="arithmetic" k2="-1" k3="1"/>
<feColorMatrix type="matrix" values="0 0 0 0 0 0 0 0 0 0 0 0 0 0 0 0 0 0 0.25 0"/>
<feBlend mode="normal" in2="effect1_innerShadow_1_3180" result="effect2_innerShadow_1_3180"/>
</filter>
</defs>
</svg>
