<svg width="250" height="250" viewBox="0 0 250 250" fill="none" xmlns="http://www.w3.org/2000/svg">
<path d="M137.5 118.75C142.708 118.75 147.135 116.927 150.781 113.281C154.427 109.635 156.25 105.208 156.25 100C156.25 94.7917 154.427 90.3646 150.781 86.7188C147.135 83.0729 142.708 81.25 137.5 81.25C132.292 81.25 127.865 83.0729 124.219 86.7188C120.573 90.3646 118.75 94.7917 118.75 100C118.75 105.208 120.573 109.635 124.219 113.281C127.865 116.927 132.292 118.75 137.5 118.75ZM100 148.438C104.688 142.917 110.312 138.672 116.875 135.703C123.438 132.734 130.312 131.25 137.5 131.25C144.688 131.25 151.562 132.734 158.125 135.703C164.688 138.672 170.312 142.917 175 148.438V75H100V148.438ZM100 162.5C96.5625 162.5 93.6198 161.276 91.1719 158.828C88.724 156.38 87.5 153.438 87.5 150V75C87.5 71.5625 88.724 68.6198 91.1719 66.1719C93.6198 63.724 96.5625 62.5 100 62.5H175C178.438 62.5 181.38 63.724 183.828 66.1719C186.276 68.6198 187.5 71.5625 187.5 75V150C187.5 153.438 186.276 156.38 183.828 158.828C181.38 161.276 178.438 162.5 175 162.5H100ZM75 187.5C71.5625 187.5 68.6198 186.276 66.1719 183.828C63.724 181.38 62.5 178.438 62.5 175V87.5H75V175H162.5V187.5H75ZM137.5 106.25C135.729 106.25 134.245 105.651 133.047 104.453C131.849 103.255 131.25 101.771 131.25 100C131.25 98.2292 131.849 96.7448 133.047 95.5469C134.245 94.349 135.729 93.75 137.5 93.75C139.271 93.75 140.755 94.349 141.953 95.5469C143.151 96.7448 143.75 98.2292 143.75 100C143.75 101.771 143.151 103.255 141.953 104.453C140.755 105.651 139.271 106.25 137.5 106.25ZM116.875 150H158.125C155.104 147.917 151.823 146.354 148.281 145.312C144.74 144.271 141.146 143.75 137.5 143.75C133.854 143.75 130.26 144.271 126.719 145.312C123.177 146.354 119.896 147.917 116.875 150Z" fill="black"/>
</svg>
