<svg width="150" height="150" viewBox="0 0 150 150" fill="none" xmlns="http://www.w3.org/2000/svg">
<g filter="url(#filter0_ii_2363_973)">
<path d="M0 40.5405V16.2162C0 11.7568 1.39881 7.93919 4.19643 4.76351C6.99405 1.58784 10.3571 0 14.2857 0H128.571C132.5 0 135.863 1.58784 138.661 4.76351C141.458 7.93919 142.857 11.7568 142.857 16.2162V64.8649H128.571V16.2162H14.2857V40.5405H0ZM14.2857 129.73C10.3571 129.73 6.99405 128.142 4.19643 124.966C1.39881 121.791 0 117.973 0 113.514V89.1892H14.2857V113.514H64.2857V129.73H14.2857ZM114.286 150L103.393 139.459C92.9167 129.324 86.1607 121.993 83.125 117.466C80.0893 112.939 78.5714 108.243 78.5714 103.378C78.5714 97.2973 80.4762 92.0608 84.2857 87.6689C88.0952 83.277 92.7381 81.0811 98.2143 81.0811C101.31 81.0811 104.256 81.8919 107.054 83.5135C109.851 85.1351 112.262 87.5 114.286 90.6081C116.19 87.5 118.542 85.1351 121.339 83.5135C124.137 81.8919 127.143 81.0811 130.357 81.0811C135.714 81.0811 140.327 83.277 144.196 87.6689C148.065 92.0608 150 97.2973 150 103.378C150 108.243 148.452 112.939 145.357 117.466C142.262 121.993 135.476 129.324 125 139.459L114.286 150ZM114.286 128.514L119.286 123.851C125.952 117.365 130.357 112.804 132.5 110.169C134.643 107.534 135.714 105.27 135.714 103.378C135.714 101.757 135.179 100.338 134.107 99.1216C133.036 97.9054 131.786 97.2973 130.357 97.2973C129.405 97.2973 128.542 97.5338 127.768 98.0068C126.994 98.4797 126.071 99.2568 125 100.338L114.286 111.562L103.393 100.338C102.321 99.2568 101.399 98.4797 100.625 98.0068C99.8512 97.5338 99.0476 97.2973 98.2143 97.2973C96.6667 97.2973 95.3869 97.9054 94.375 99.1216C93.3631 100.338 92.8571 101.757 92.8571 103.378C92.8571 105.27 93.8988 107.534 95.9821 110.169C98.0655 112.804 102.44 117.365 109.107 123.851L114.286 128.514ZM35.7143 105.405C34.2857 105.405 33.006 105.034 31.875 104.291C30.744 103.547 29.881 102.432 29.2857 100.946L16.9643 72.973H0V56.7568H21.4286C22.7381 56.7568 23.9583 57.1622 25.0893 57.973C26.2202 58.7838 27.0833 59.8649 27.6786 61.2162L35.7143 79.2568L57.8571 28.7838C58.4524 27.4324 59.3452 26.4189 60.5357 25.7432C61.7262 25.0676 62.9762 24.7297 64.2857 24.7297C65.5952 24.7297 66.8452 25.0676 68.0357 25.7432C69.2262 26.4189 70.119 27.4324 70.7143 28.7838L82.8571 56.7568H107.143V72.973H78.5714C77.1429 72.973 75.8631 72.6014 74.7321 71.8581C73.6012 71.1149 72.7381 70 72.1429 68.5135L64.2857 50.6757L41.9643 100.946C41.369 102.432 40.506 103.547 39.375 104.291C38.244 105.034 37.0238 105.405 35.7143 105.405Z" fill="#F1A33B"/>
</g>
<defs>
<filter id="filter0_ii_2363_973" x="0" y="0" width="150" height="154" filterUnits="userSpaceOnUse" color-interpolation-filters="sRGB">
<feFlood flood-opacity="0" result="BackgroundImageFix"/>
<feBlend mode="normal" in="SourceGraphic" in2="BackgroundImageFix" result="shape"/>
<feColorMatrix in="SourceAlpha" type="matrix" values="0 0 0 0 0 0 0 0 0 0 0 0 0 0 0 0 0 0 127 0" result="hardAlpha"/>
<feOffset dy="4"/>
<feGaussianBlur stdDeviation="2"/>
<feComposite in2="hardAlpha" operator="arithmetic" k2="-1" k3="1"/>
<feColorMatrix type="matrix" values="0 0 0 0 0 0 0 0 0 0 0 0 0 0 0 0 0 0 0.25 0"/>
<feBlend mode="normal" in2="shape" result="effect1_innerShadow_2363_973"/>
<feColorMatrix in="SourceAlpha" type="matrix" values="0 0 0 0 0 0 0 0 0 0 0 0 0 0 0 0 0 0 127 0" result="hardAlpha"/>
<feOffset dy="4"/>
<feGaussianBlur stdDeviation="2"/>
<feComposite in2="hardAlpha" operator="arithmetic" k2="-1" k3="1"/>
<feColorMatrix type="matrix" values="0 0 0 0 0 0 0 0 0 0 0 0 0 0 0 0 0 0 0.25 0"/>
<feBlend mode="normal" in2="effect1_innerShadow_2363_973" result="effect2_innerShadow_2363_973"/>
</filter>
</defs>
</svg>
