<svg width="125" height="125" viewBox="0 0 125 125" fill="none" xmlns="http://www.w3.org/2000/svg">
<path d="M75.5 56.75C80.7083 56.75 85.1354 54.9271 88.7812 51.2812C92.4271 47.6354 94.25 43.2083 94.25 38C94.25 32.7917 92.4271 28.3646 88.7812 24.7188C85.1354 21.0729 80.7083 19.25 75.5 19.25C70.2917 19.25 65.8646 21.0729 62.2188 24.7188C58.5729 28.3646 56.75 32.7917 56.75 38C56.75 43.2083 58.5729 47.6354 62.2188 51.2812C65.8646 54.9271 70.2917 56.75 75.5 56.75ZM38 86.4375C42.6875 80.9167 48.3125 76.6719 54.875 73.7031C61.4375 70.7344 68.3125 69.25 75.5 69.25C82.6875 69.25 89.5625 70.7344 96.125 73.7031C102.688 76.6719 108.312 80.9167 113 86.4375V13H38V86.4375ZM38 100.5C34.5625 100.5 31.6198 99.276 29.1719 96.8281C26.724 94.3802 25.5 91.4375 25.5 88V13C25.5 9.5625 26.724 6.61979 29.1719 4.17188C31.6198 1.72396 34.5625 0.5 38 0.5H113C116.438 0.5 119.38 1.72396 121.828 4.17188C124.276 6.61979 125.5 9.5625 125.5 13V88C125.5 91.4375 124.276 94.3802 121.828 96.8281C119.38 99.276 116.438 100.5 113 100.5H38ZM13 125.5C9.5625 125.5 6.61979 124.276 4.17188 121.828C1.72396 119.38 0.5 116.438 0.5 113V25.5H13V113H100.5V125.5H13ZM75.5 44.25C73.7292 44.25 72.2448 43.651 71.0469 42.4531C69.849 41.2552 69.25 39.7708 69.25 38C69.25 36.2292 69.849 34.7448 71.0469 33.5469C72.2448 32.349 73.7292 31.75 75.5 31.75C77.2708 31.75 78.7552 32.349 79.9531 33.5469C81.151 34.7448 81.75 36.2292 81.75 38C81.75 39.7708 81.151 41.2552 79.9531 42.4531C78.7552 43.651 77.2708 44.25 75.5 44.25ZM54.875 88H96.125C93.1042 85.9167 89.8229 84.3542 86.2812 83.3125C82.7396 82.2708 79.1458 81.75 75.5 81.75C71.8542 81.75 68.2604 82.2708 64.7188 83.3125C61.1771 84.3542 57.8958 85.9167 54.875 88Z" fill="black"/>
</svg>
