<svg width="150" height="150" viewBox="0 0 150 150" fill="none" xmlns="http://www.w3.org/2000/svg">
<g filter="url(#filter0_ii_2363_933)">
<path d="M41.25 0C47.75 0 53.9375 1.49864 59.8125 4.49591C65.6875 7.49319 70.75 11.7166 75 17.1662C79.25 11.7166 84.3125 7.49319 90.1875 4.49591C96.0625 1.49864 102.25 0 108.75 0C120.5 0 130.313 4.29155 138.188 12.8747C146.062 21.4578 150 32.1526 150 44.9591C150 45.6403 149.969 46.3215 149.906 47.0027C149.844 47.6839 149.812 48.3651 149.812 49.0463H134.812C134.938 48.3651 135 47.6839 135 47.0027V44.9591C135 36.7847 132.5 29.9728 127.5 24.5232C122.5 19.0736 116.25 16.3488 108.75 16.3488C102.875 16.3488 97.4375 18.1539 92.4375 21.7643C87.4375 25.3747 84 29.9727 82.125 35.5586H67.875C66 29.9727 62.5625 25.3747 57.5625 21.7643C52.5625 18.1539 47.125 16.3488 41.25 16.3488C33.75 16.3488 27.5 19.0736 22.5 24.5232C17.5 29.9728 15 36.7847 15 44.9591V47.0027C15 47.6839 15.0625 48.3651 15.1875 49.0463H0.1875C0.1875 48.3651 0.15625 47.6839 0.0937499 47.0027C0.0312499 46.3215 0 45.6403 0 44.9591C0 32.1526 3.93749 21.4578 11.8125 12.8747C19.6875 4.29155 29.5 0 41.25 0ZM24.75 98.0926H45.75C49.75 102.316 54.125 106.88 58.875 111.785C63.625 116.689 69 122.071 75 127.929C81 122.071 86.375 116.689 91.125 111.785C95.875 106.88 100.25 102.316 104.25 98.0926H125.437C120.687 103.815 115.062 110.014 108.562 116.689C102.062 123.365 94.5 130.926 85.875 139.373L75 150L64.125 139.373C55.5 130.926 47.9687 123.365 41.5312 116.689C35.0937 110.014 29.5 103.815 24.75 98.0926ZM67.875 106.267C69.5 106.267 70.9062 105.756 72.0937 104.734C73.2812 103.713 74.125 102.384 74.625 100.749L84.75 67.4387L91.3125 78.0654C91.9375 79.1553 92.8125 80.0409 93.9375 80.7221C95.0625 81.4033 96.25 81.7439 97.5 81.7439H149.812V65.3951H101.812L88.875 44.5504C88.125 43.3242 87.1562 42.4046 85.9687 41.7916C84.7812 41.1785 83.5 40.8719 82.125 40.8719C80.5 40.8719 79.0937 41.3828 77.9062 42.4046C76.7187 43.4264 75.875 44.7548 75.375 46.3896L65.25 79.4959L58.875 69.0736C58.25 67.9837 57.375 67.0981 56.25 66.4169C55.125 65.7357 53.9375 65.3951 52.6875 65.3951H0L0.00512539 81.7439H48.1875L61.125 102.589C61.875 103.815 62.8437 104.734 64.0312 105.347C65.2187 105.96 66.5 106.267 67.875 106.267Z" fill="#F1A33B"/>
</g>
<defs>
<filter id="filter0_ii_2363_933" x="0" y="0" width="150" height="154" filterUnits="userSpaceOnUse" color-interpolation-filters="sRGB">
<feFlood flood-opacity="0" result="BackgroundImageFix"/>
<feBlend mode="normal" in="SourceGraphic" in2="BackgroundImageFix" result="shape"/>
<feColorMatrix in="SourceAlpha" type="matrix" values="0 0 0 0 0 0 0 0 0 0 0 0 0 0 0 0 0 0 127 0" result="hardAlpha"/>
<feOffset dy="4"/>
<feGaussianBlur stdDeviation="2"/>
<feComposite in2="hardAlpha" operator="arithmetic" k2="-1" k3="1"/>
<feColorMatrix type="matrix" values="0 0 0 0 0 0 0 0 0 0 0 0 0 0 0 0 0 0 0.25 0"/>
<feBlend mode="normal" in2="shape" result="effect1_innerShadow_2363_933"/>
<feColorMatrix in="SourceAlpha" type="matrix" values="0 0 0 0 0 0 0 0 0 0 0 0 0 0 0 0 0 0 127 0" result="hardAlpha"/>
<feOffset dy="4"/>
<feGaussianBlur stdDeviation="2"/>
<feComposite in2="hardAlpha" operator="arithmetic" k2="-1" k3="1"/>
<feColorMatrix type="matrix" values="0 0 0 0 0 0 0 0 0 0 0 0 0 0 0 0 0 0 0.25 0"/>
<feBlend mode="normal" in2="effect1_innerShadow_2363_933" result="effect2_innerShadow_2363_933"/>
</filter>
</defs>
</svg>
